<svg xmlns="http://www.w3.org/2000/svg" viewBox="0 0 800 600">
<defs><linearGradient id="bg" x1="0" y1="0" x2="1" y2="1"><stop stop-color="#f4f8dc"/><stop offset="1" stop-color="#d8edc6"/></linearGradient><linearGradient id="drink" x1="0" y1="0" x2="0" y2="1"><stop stop-color="#fff5a8"/><stop offset="1" stop-color="#f3cf55"/></linearGradient></defs>
<rect width="800" height="600" fill="url(#bg)"/><ellipse cx="400" cy="485" rx="210" ry="35" fill="#9eb48b" opacity=".35"/><path d="M300 190h200l-25 280H325z" fill="#fff" opacity=".5" stroke="#b8cbb1" stroke-width="8"/><path d="M312 250h176l-17 210H329z" fill="url(#drink)" opacity=".9"/>
<circle cx="335" cy="285" r="24" fill="#f5e57b" opacity=".8"/><circle cx="445" cy="350" r="18" fill="#fff" opacity=".7"/><circle cx="380" cy="405" r="20" fill="#fff" opacity=".6"/><path d="M500 160L430 250" stroke="#6e8d4e" stroke-width="14" stroke-linecap="round"/><path d="M450 170c40-20 60-2 65 20-34 10-51 1-65-20z" fill="#78a34f"/><circle cx="505" cy="210" r="45" fill="#f5d54d"/><path d="M505 170a40 40 0 0 0 0 80" fill="none" stroke="#fff2a5" stroke-width="7"/>
<text x="400" y="85" text-anchor="middle" font-family="Georgia,serif" font-size="42" font-weight="700" fill="#40552d">Fresh Lemonade</text><text x="400" y="120" text-anchor="middle" font-family="Arial,sans-serif" font-size="19" fill="#61734f">Lemon • mint • ice</text>
</svg>
